<?xml version="1.0" encoding="UTF-8"?>
<!DOCTYPE svg PUBLIC "-//W3C//DTD SVG 1.1//EN" "http://www.w3.org/Graphics/SVG/1.1/DTD/svg11.dtd">
<!-- Creator: CorelDRAW 2021 (64-Bit) -->
<svg xmlns="http://www.w3.org/2000/svg" xml:space="preserve" width="1.00909in" height="0.633984in" version="1.1" style="shape-rendering:geometricPrecision; text-rendering:geometricPrecision; image-rendering:optimizeQuality; fill-rule:evenodd; clip-rule:evenodd"
viewBox="0 0 1018.26 639.75"
 xmlns:xlink="http://www.w3.org/1999/xlink"
 xmlns:xodm="http://www.corel.com/coreldraw/odm/2003">
 <defs>
  <style type="text/css">
   <![CDATA[
    .fil4 {fill:#E31E24}
    .fil3 {fill:#BD6F00}
    .fil0 {fill:#E31E24;fill-rule:nonzero}
    .fil6 {fill:#952E34;fill-rule:nonzero}
    .fil5 {fill:#BD6F00;fill-rule:nonzero}
    .fil2 {fill:url(#id0)}
    .fil1 {fill:url(#id1)}
   ]]>
  </style>
  <linearGradient id="id0" gradientUnits="userSpaceOnUse" x1="509.25" y1="317.69" x2="509.27" y2="225.84">
   <stop offset="0" style="stop-opacity:1; stop-color:#E31E24"/>
   <stop offset="1" style="stop-opacity:1; stop-color:#EF7F1A"/>
  </linearGradient>
  <linearGradient id="id1" gradientUnits="userSpaceOnUse" x1="622.2" y1="193.98" x2="622.21" y2="283.63">
   <stop offset="0" style="stop-opacity:1; stop-color:#008DD2"/>
   <stop offset="1" style="stop-opacity:1; stop-color:#7E71B1"/>
  </linearGradient>
 </defs>
 <g id="Layer_x0020_1">
  <metadata id="CorelCorpID_0Corel-Layer"/>
  <g id="_2246617458096">
   <path class="fil0" d="M259.77 621.71l23.73 -54.22 10.95 0 3.97 71.08 -10.95 0 -2.9 -61.09 -0.43 0 -27.06 61.09 -1.5 0 -26.52 -58.63 -0.43 0 -2.9 58.63 -4.72 0 3.97 -71.08 9.99 0 24.8 54.22zm48.96 16.86l31.89 -72.8 1.61 0 31.89 72.8 -11.7 0 -8.05 -19.33 -31.89 0 -7.95 19.33 -5.8 0zm15.35 -23.41l28.56 0 -14.17 -34.79 -14.39 34.79zm114.78 24.59l-1.83 0 -47.03 -58.84 -0.43 0 0 57.66 -4.72 0 0 -71.08 7.95 0 40.91 51.65 0.43 0 0 -51.65 4.73 0 0 72.26zm19.32 -1.18l0 -71.08 20.29 0c8.48,0 16.11,1.83 22.87,5.37 3.65,1.82 6.87,4.19 9.55,6.98 2.69,2.79 4.94,6.34 6.55,10.63 1.61,4.4 2.47,9.23 2.47,14.49 0,7.62 -1.93,13.96 -5.69,19.22 -6.98,9.56 -18.14,14.39 -33.71,14.39l-22.34 0zm20.19 -3.65c9.13,0 16.43,-2.69 21.91,-8.05 5.47,-5.37 8.27,-13.21 8.27,-23.62 0,-8.05 -2.15,-14.92 -6.55,-20.61 -4.4,-5.69 -9.98,-9.45 -16.96,-11.27 -6.23,0 -11.7,0.75 -16.32,2.26l0 60.34c2.25,0.64 5.47,0.97 9.66,0.97zm47.24 3.65l31.89 -72.8 1.61 0 31.89 72.8 -11.7 0 -8.05 -19.33 -31.89 0 -7.95 19.33 -5.8 0zm15.35 -23.41l28.56 0 -14.17 -34.79 -14.39 34.79zm108.55 -29.2c0,6.87 -2.47,12.03 -7.51,15.57 -5.05,3.54 -11.92,5.37 -20.61,5.37l-9.24 0 0 31.68 -10.41 0 0 -71.08 23.08 0c7.19,0 13.21,1.61 17.83,4.94 4.62,3.33 6.87,7.83 6.87,13.53zm-37.36 17.82l9.56 0c3.33,0 6.23,-0.64 8.7,-1.93 2.36,-1.29 4.08,-2.9 5.15,-4.94 1.93,-3.54 2.9,-7.09 2.9,-10.42 0,-1.61 -0.43,-3.65 -1.29,-5.9 -1.72,-4.73 -5.26,-7.84 -10.63,-9.24 -5.15,0 -9.99,0.65 -14.39,1.83l0 30.6z"/>
   <path class="fil0" d="M646.94 638.57l31.89 -72.8 1.61 0 31.89 72.8 -11.7 0 -8.05 -19.33 -31.89 0 -7.95 19.33 -5.8 0zm15.35 -23.41l28.56 0 -14.17 -34.79 -14.39 34.79zm98.67 6.55l23.73 -54.22 10.95 0 3.97 71.08 -10.95 0 -2.9 -61.09 -0.43 0 -27.06 61.09 -1.5 0 -26.52 -58.63 -0.43 0 -2.9 58.63 -4.73 0 3.97 -71.08 9.99 0 24.8 54.22z"/>
   <path class="fil1" d="M690.33 201.06l0 -1.09c-2.1,0.21 -9.26,2.72 -12.12,3.47 -19.59,5.14 -37.88,10.29 -56.11,19.5 -5.96,3.01 -12.75,8.15 -17.4,12.85 -6.32,6.38 -5.41,12.82 -7.79,22.82 -4.91,20.74 -13.44,33.65 -29.34,46.25 -2.78,2.21 -7.94,4.78 -8.61,6.48 3.61,1.31 22.53,-1.99 27.06,-2.82 22.62,-4.13 44.26,-17.08 58.97,-31.71 18.69,-18.59 23.73,-33.04 35.07,-55.66 1.74,-3.47 8.63,-18.29 10.27,-20.09zm-179.97 -128.41l-0.69 0 -12.12 16.47c-2.59,3.62 -5.08,7.35 -7.62,11.2 1.86,1.49 3.85,2.92 6.11,4.42 9.17,6.06 19.92,11.64 25.87,23.05 2.7,5.18 3.73,10.33 4.77,15.49 1.49,7.42 3.45,26.22 3.61,33.93 0.02,1.2 0.12,2.43 0.08,3.64 -0.06,2.35 0.57,7.03 -1.52,6.33 -2.67,-0.89 -4.21,-4.58 -4.74,-7.05 -0.52,-2.44 -0.77,-5.03 -1.12,-7.52 -0.86,-6.11 -1.39,-9.17 -3.33,-15.18 -1.95,-5.99 -3.62,-10.15 -7.51,-15.86 -1.97,-2.89 -3.78,-5.24 -6.2,-7.73 -1.38,-1.43 -5.18,-5.09 -6.68,-5.07 0.13,0.64 0.9,2.49 1.18,3.23 0.41,1.06 0.79,2.19 1.12,3.25 0.69,2.14 1.43,4.29 2.07,6.47 0.88,2.99 3.57,10.6 2.67,12.78 -1.12,0.71 -2.67,-0.12 -3.65,-1.22 -1.08,-1.2 -7.06,-13.56 -12.59,-20.36 -3.48,-4.29 -8.63,-7.81 -12.71,-12.2l-2.16 3.62c-6.24,11.88 -13.69,28.14 -15.88,41.68 -0.98,6.06 -1.8,21.08 -0.6,27.14 2.15,10.75 10.09,22.87 17.98,30.85 0.79,0.86 1.64,1.68 2.53,2.47l1.3 1.36c0.41,0.39 0.18,0.21 0.54,0.46 0.03,-0.06 0.06,-0.14 0.09,-0.23 7.44,5.78 17.54,9.33 28.68,9.33 4.03,0 7.79,-0.37 11.31,-1.1 -4.68,-3.31 -8.98,-7.3 -12.42,-12.59 -3.72,-5.72 -5.49,-11.6 -7.27,-17.48 -2.57,-8.46 -6.95,-30.1 -8,-39.04 -0.16,-1.39 -0.41,-2.8 -0.5,-4.22 -0.2,-2.73 -1.45,-8.11 1.05,-7.53 3.2,0.75 5.41,4.86 6.3,7.67 0.88,2.78 1.46,5.76 2.15,8.62 1.68,7.01 2.64,10.51 5.58,17.27 2.93,6.75 5.35,11.39 10.51,17.6 2.61,3.14 4.98,5.67 8.07,8.3 1.77,1.5 6.59,5.34 8.33,5.14 -0.22,-0.74 -1.32,-2.79 -1.74,-3.63 -0.59,-1.19 -1.16,-2.46 -1.67,-3.65 -1.04,-2.41 -2.14,-4.83 -3.13,-7.29 -1.36,-3.38 -5.34,-11.92 -4.54,-14.56 1.22,-0.96 3.12,-0.16 4.39,1.01 1.39,1.27 9.73,14.97 16.92,22.26 1.24,1.25 2.61,2.42 4.05,3.56l0.44 -0.58c1.08,-1.45 1.99,-2.62 3.1,-4.18 3.36,-4.7 7.74,-13.09 8.87,-19.91 2.84,-17.17 -1.26,-34.5 -7.1,-48.93 -7.25,-17.92 -20.71,-39.56 -31.9,-54.78 -4.18,-5.69 -8.11,-11.58 -12.25,-16.71zm-7.12 95.58c0.18,3.44 5.97,21.05 8.34,24.75 0.14,-0.49 0.05,-0.04 0.08,-0.46l-0.21 -3c-0.29,-3.65 -1.24,-14.36 -2.19,-17.17 -0.89,-2.62 -4.12,-4.37 -6.03,-4.13zm9.23 15.58c-0,0.05 0.03,0.09 -0.01,0.14 -0.04,0.06 -0,0.11 -0,0.14 -0,0.03 -0,0.1 -0,0.14l1.1 11.94c0.1,1.13 0.39,1.35 1.15,2.51 0.77,1.16 2.69,4.16 3.65,4.93 -0.28,-0.84 -0.08,-12.75 -1.31,-15.74 -0.62,-1.5 -2.16,-3.35 -3.78,-3.93 -0.04,-0.01 -0.34,-0.1 -0.39,-0.1 -0.31,-0.05 -0.15,-0.04 -0.41,-0.02zm7.23 15.49c-0.01,0.04 0.02,0.08 -0.02,0.14l-0.01 0.53c0.11,1.76 0.39,3.27 0.35,5.22 -0.04,1.63 0.15,1.41 1.54,2.98 0.87,0.99 1.84,2.23 2.83,3.07 0.23,-0.79 0.06,-5.44 -0.08,-6.52 -0.29,-2.31 -1.99,-5.62 -4.61,-5.41zm2.32 -23.79c0.13,-2.94 -3.36,-18.42 -5.08,-21.77 -0.16,0.4 -0.05,0.02 -0.1,0.38l-0.07 2.57c-0.06,3.13 -0.12,12.34 0.45,14.81 0.54,2.31 3.15,4.06 4.8,4.01zm-6.59 -14.04c0.01,-0.04 -0.02,-0.08 0.02,-0.12 0.03,-0.04 0.02,-0.1 0.02,-0.12 0,-0.02 0.01,-0.08 0.02,-0.12l0.04 -10.26c0,-0.98 -0.21,-1.19 -0.77,-2.24 -0.56,-1.05 -1.95,-3.76 -2.71,-4.5 0.17,0.74 -0.98,10.87 -0.17,13.52 0.41,1.33 1.57,3.04 2.9,3.65 0.04,0.02 0.28,0.11 0.32,0.12 0.26,0.07 0.13,0.04 0.35,0.05zm-4.89 -13.8c0.01,-0.04 -0.01,-0.07 0.02,-0.12l0.05 -0.45c0.05,-1.5 -0.06,-2.82 0.13,-4.47 0.16,-1.39 -0.01,-1.22 -1.07,-2.67 -0.66,-0.91 -1.39,-2.05 -2.16,-2.84 -0.26,0.66 -0.49,4.63 -0.46,5.57 0.06,1.99 1.24,4.95 3.49,4.99zm63.29 40.53c-0.01,4.41 -0.52,8.28 -1.57,12.25 -0.69,2.58 -3.17,7.96 -3.2,9.95 3.4,-1.18 25.35,-16.91 29.26,-18.06 2.11,13.13 1.51,24.33 3.02,34.58 2.12,-0.73 4.08,-3.31 6.22,-4.85 2.17,-1.56 4.03,-2.75 6.55,-4.25 3.5,-2.1 11.84,-5.51 13.33,-8.28 1.6,-2.98 3.46,-13.79 3.87,-17.75 2.92,-28.89 -5.09,-58.84 -17.11,-84.76l-1.98 -3.58c-3.48,0.95 -18.38,13.66 -21.8,16.87l-4.31 4.33c-0.96,0.81 -1.4,1.01 -2.36,1.96l-6.28 6.67c-2.32,2.34 -7.44,9.13 -9.36,11.88 -3.14,4.52 -0.46,8.1 1.01,13.03 2.86,9.53 4.74,19.32 4.71,30zm-155.64 38.75c1.55,-2.12 0.95,-24.04 3.46,-34.58 2.74,0.83 11.51,7.07 14.46,8.85 2.94,1.77 11.56,7.93 14.53,8.69 -1.45,-5.87 -3.57,-9.78 -4.25,-16.48 -0.66,-6.52 -0.02,-13.28 0.83,-19.34 0.83,-5.88 2.13,-11.13 3.83,-16.73 2.75,-9.12 5.66,-6.85 -5.18,-19.9l-12.4 -13.17c-1.07,-1.05 -1.8,-1.39 -2.91,-2.49 -3.89,-3.83 -12.01,-10.56 -16.8,-14.15 -1.43,-1.07 -4.62,-3.81 -6.4,-4.1 -2.7,2.61 -10.47,25.14 -12.25,30.63 -6.39,19.74 -7.7,36.43 -6.4,57.58 0.45,7.31 1.64,11.2 3.96,17.63 0.99,2.74 1,2.05 6.18,4.61 7.67,3.8 10.1,5.55 16.51,10.48 1.19,0.91 1.64,1.62 2.83,2.47zm-87.87 -25.37c0.82,1.01 19.68,41.15 25.16,50.01 1.9,3.07 3.96,6.49 5.99,9.15 3.52,4.61 9.7,12.9 13.78,16.1 1.26,0.99 2.75,2.6 3.85,3.72 2.56,2.6 9.64,7.98 12.68,9.99 22.09,14.66 40.87,20.27 69.42,20.59l-9.03 -6.48c-18.49,-14.13 -29.27,-35.38 -31.68,-59.09 -0.63,-6.24 -5.33,-9.51 -9.04,-13.23 -7.53,-7.54 -24.6,-14.77 -34.36,-18.22 -7.54,-2.67 -15.08,-4.96 -22.96,-7.26 -4.1,-1.2 -20.55,-5.9 -23.82,-6.2l0 0.91zm105.68 140.16l10.41 0c11.37,1.78 34.55,-6.61 45.49,-12.84 2.2,-1.25 10.58,-5.37 11.98,-7.61 -37.47,-0.33 -71.27,0.83 -103.72,-15.36 -2.03,-1.01 -6.05,-3.81 -7.92,-4.01 -6.43,-0.68 -40.93,12.8 -43.84,15.49 3.8,0.93 7.47,1.59 11.28,2.71 3.72,1.1 6.97,2.21 10.56,3.5 14.74,5.28 25.82,10.52 41.34,14.82 5.18,1.43 18.73,4.19 24.44,3.31zm173.6 -3.84c15.57,-4.16 32.39,-12.75 50.52,-17.92 2.63,-0.75 8.77,-1.93 10.66,-2.9 -1.46,-1.54 -13.48,-6.15 -16.62,-7.39 -5.72,-2.24 -11.54,-4.29 -17.64,-6.11 -10.31,-3.07 -9.15,-1.77 -17.29,2.52 -5.53,2.91 -10.79,4.76 -16.96,6.78 -29.78,9.79 -55.52,8.09 -86.32,8.4 1.61,3.02 21.19,12.29 24.19,13.51 22.19,9.05 46.54,9.22 69.46,3.11z"/>
   <path class="fil2" d="M508.14 319.26c1.09,-2.55 -1.28,-17.67 -1.93,-21.09 -1.25,-6.62 -2.92,-12.52 -5.07,-18.68 -4.23,-12.13 -10.88,-22.23 -17.55,-30.34 -1.95,-2.37 -3.67,-4.09 -5.73,-6.15 -11.78,-11.83 -18.92,-16.5 -33.36,-26.04 -2.89,-1.91 -12.18,-8.3 -14.7,-9.17 -3.31,6.71 -0.46,36.18 0.94,44.17 4.77,27.13 17.62,43.12 41.71,55.13 5.48,2.74 11.12,5.26 16.94,7.2 2.36,0.78 17.05,5.58 18.74,4.97zm3.36 -3.24c0,1.98 -0.2,2.04 0.44,3.42 5.37,-0.08 25.95,-7.81 30.94,-10.09 12.14,-5.53 23.05,-12.14 30.46,-21.39 17.65,-22.04 18.08,-44.33 18.06,-70.93 0,-2.68 -0.19,-7.43 -1.28,-9.23 -2.85,0.96 -24.83,15.57 -28.33,18.21 -4.67,3.52 -9.22,6.57 -13.26,10.15 -2.28,2.03 -3.85,3.56 -5.93,5.59 -10.65,10.36 -17.17,21.53 -23.22,35.46 -4.26,9.79 -7.9,27.33 -7.88,38.83z"/>
   <path class="fil3" d="M809.85 519.16c1.57,0.46 3.55,-0.85 6.95,-1.18 8.21,-0.79 15.31,-0.08 22.93,2.68 8.67,3.13 16.6,7.56 21.85,12.81 1.35,-0.57 3.24,-2.32 4.54,-3.27 1.74,-1.26 3.15,-2.2 4.91,-3.29 6.67,-4.1 15.84,-7.83 23.86,-8.88 7.9,-1.04 10.4,0.31 15.42,0.59l26.57 -145.37 -52.5 -0.11c-0.46,6.87 -0.06,29.96 -0.06,38.57 -0,12.88 -0.03,25.77 0,38.64 0.02,8.66 1.06,30.47 -1.5,37.22 -3.13,8.23 -11.11,15.97 -22.76,15.96 -11.6,-0.01 -19.75,-7.79 -22.77,-15.95 -2.52,-6.83 -1.51,-28.52 -1.49,-37.23l-0.01 -57.76c0.01,-6.11 0.36,-13.42 -0.06,-19.39l-52.39 -0.06 26.51 146.01z"/>
   <path class="fil3" d="M858.46 540.34c-11.89,3.24 -7.33,20.79 4.57,17.98 4.28,-1.01 8.19,-5.69 6.66,-11.45 -1.09,-4.1 -5.47,-8.11 -11.23,-6.54z"/>
   <path class="fil4" d="M863.27 379.59l-4.22 -37.57c-1.11,1.7 -4.67,45.04 -5.17,50.26 -0.77,8.19 -2.78,25.14 -3.09,31.91 -0.49,10.79 -2.28,21.28 -3.08,31.64 -0.99,12.94 -5.09,23.18 4.47,27.44 8.64,3.85 22.34,1.19 21.84,-9.88 -0.33,-7.54 -3.24,-23.43 -3.73,-31.21l-7.03 -62.59z"/>
   <path class="fil5" d="M123.38 373.08l0 145.66 -29.48 0 -56.34 -98.49c0,2.62 0.22,4.15 0.22,5.02 0.22,2.4 0.44,4.59 0.44,6.33l0 87.14 -26.65 0 0 -145.66 36.91 0 49.14 85.83c-0.44,-4.15 -0.66,-7.43 -0.66,-9.61l0 -76.22 26.43 0z"/>
   <polygon class="fil5" points="186.82,373.08 186.82,518.74 152.75,518.74 152.75,373.08 "/>
   <polygon class="fil5" points="250.48,489.92 308.35,489.92 308.35,518.74 215.98,518.74 215.98,373.08 250.48,373.08 "/>
   <path class="fil5" d="M397.78 373.08l45.21 145.66 -36.69 0 -8.95 -30.13 -46.95 0 -9.17 30.13 -29.92 0 46.74 -145.66 39.74 0zm-39.31 88.66l30.79 0 -15.06 -51.1 -15.72 51.1z"/>
   <polygon class="fil5" points="522.88,518.74 487.29,399.95 487.29,518.74 458.68,518.74 458.68,373.08 511.75,373.08 537.3,460.22 563.94,373.08 617.23,373.08 617.23,518.74 582.94,518.74 582.94,399.95 546.47,518.74 "/>
   <path class="fil5" d="M646.46 373.08l67.7 0c12.23,0 21.4,1.53 27.52,4.37 5.9,3.06 11.14,7.43 15.07,12.88 3.93,5.68 5.9,12.45 5.9,20.31 0,16.16 -8.74,27.08 -26.2,32.32 10.04,2.4 17.69,6.77 22.71,13.54 5.24,6.77 7.64,14.19 7.64,22.06 0,10.92 -4.15,20.31 -12.45,28.39 -8.08,7.86 -21.62,11.79 -40.18,11.79l-67.7 0 0 -145.66zm34.07 25.77l0 31.88 25.77 0c9.39,0 15.29,-1.96 17.69,-5.68 2.4,-3.71 3.71,-7.21 3.71,-10.7 0,-3.71 -1.09,-6.77 -3.06,-9.39 -1.96,-2.84 -4.15,-4.37 -6.55,-5.02 -2.4,-0.87 -7.21,-1.09 -14.19,-1.09l-23.36 0zm0 58.09l0 34.72 25.99 0c8.95,0 15.29,-1.53 19,-4.58 3.71,-3.28 5.46,-7.43 5.46,-13.1 0,-4.59 -1.75,-8.52 -5.24,-12.01 -3.49,-3.27 -9.39,-5.02 -17.69,-5.02l-27.52 0z"/>
   <path class="fil5" d="M1009.09 373.08l0 103.95c0,14.63 -3.5,25.77 -10.7,32.98 -6.99,7.21 -18.56,10.92 -34.72,10.92 -7.21,0 -14.85,-0.66 -23.15,-2.19l0 -28.39c6.77,1.09 12.45,1.75 17.47,1.75 4.15,0 7.43,-0.87 10.05,-2.4 2.4,-1.53 4.15,-3.27 5.24,-5.46 1.09,-2.19 1.75,-6.11 1.75,-11.57l0 -99.59 34.07 0z"/>
   <path class="fil6" d="M38.79 599.32l0 6.86 -19.4 -19.4 6.86 -6.86 19.4 19.4 0 6.86 -6.86 -6.86zm6.86 0l3.43 3.43 -3.43 3.43 0 -6.86zm-22.82 22.82l-3.43 -3.42 19.4 -19.4 6.86 6.86 -19.4 19.4 -3.43 -3.43zm-3.43 -22.82l0 6.86 -19.4 -19.4 6.86 -6.86 19.4 19.4 0 6.86 -6.86 -6.86zm6.86 0l3.43 3.43 -3.43 3.43 0 -6.86zm-22.82 22.82l-3.43 -3.42 19.4 -19.4 6.86 6.86 -19.4 19.4 -3.43 -3.43zm34.23 -14.54c-2.68,0 -4.85,-2.17 -4.85,-4.85 0,-2.68 2.17,-4.85 4.85,-4.85l0 9.7zm147.49 0l-147.49 0 0 -9.7 147.49 0 0 9.7zm0 -9.7c2.68,0 4.85,2.17 4.85,4.85 0,2.68 -2.17,4.85 -4.85,4.85l0 -9.7z"/>
   <path class="fil6" d="M828.77 607.6c-2.67,0 -4.85,-2.17 -4.85,-4.85 0,-2.68 2.17,-4.85 4.85,-4.85l0 9.7zm150.46 0l-150.46 0 0 -9.7 150.46 0 0 9.7zm-13.56 2.29l-21.45 14.29 14.29 -21.43 -14.29 -21.45 21.45 14.3 -7.12 -14.3 39.28 21.45 -39.28 21.43 7.12 -14.29zm13.56 -11.99c2.67,0 4.85,2.17 4.85,4.85 0,2.68 -2.17,4.85 -4.85,4.85l0 -9.7z"/>
   <g>
    <path class="fil6" d="M702.09 326.78c-5.07,0 -9.17,-2.18 -9.17,-4.86 0,-2.68 4.11,-4.86 9.17,-4.86l0 9.73zm307 0l-307 0 0 -9.73 307 0 0 9.73zm0 -9.73c5.07,0 9.17,2.18 9.17,4.86 0,2.68 -4.11,4.86 -9.17,4.86l0 -9.73z"/>
   </g>
   <g>
    <path class="fil6" d="M11.56 326.78c-5.07,0 -9.17,-2.18 -9.17,-4.86 0,-2.68 4.11,-4.86 9.17,-4.86l0 9.73zm307 0l-307 0 0 -9.73 307 0 0 9.73zm0 -9.73c5.07,0 9.17,2.18 9.17,4.86 0,2.68 -4.11,4.86 -9.17,4.86l0 -9.73z"/>
   </g>
   <path class="fil5" d="M524.17 35.78c6.45,0.16 9.77,-3.43 9.95,-10.71l1.29 0.03 -0.31 12.25 -30.3 -0.77 0.03 -1.29 3.23 0.08 0.85 -33.53 -3.22 -0.08 0.03 -1.29 29.66 0.75 -0.28 10.96 -1.29 -0.04c0.1,-3.8 -0.61,-6.4 -2.06,-7.79 -1.51,-1.33 -3.95,-2.04 -7.37,-2.13l-5.8 -0.15 -0.39 15.48 2.58 0.06c3.09,0.08 5.04,-0.26 5.9,-1.01 0.86,-0.75 1.28,-2.29 1.34,-4.61l1.29 0.03 -0.33 12.9 -1.29 -0.03c0.06,-2.39 -0.29,-4.01 -1.11,-4.74 -0.82,-0.73 -2.74,-1.17 -5.84,-1.24l-2.58 -0.07 -0.43 16.77 6.45 0.16z"/>
   <path class="fil5" d="M583.55 29.88c1.49,-5.28 1.99,-9.63 1.41,-13.01 -0.6,-3.32 -2.16,-5.38 -4.64,-6.08 -2.54,-0.72 -4.95,0.2 -7.22,2.78 -2.28,2.57 -4.2,6.52 -5.71,11.85 -1.51,5.34 -1.99,9.63 -1.4,12.95 0.54,3.3 2.12,5.29 4.73,6.03 5.4,1.53 9.65,-3.29 12.84,-14.52zm9.9 3.14c-1.62,5.71 -4.54,9.64 -8.76,11.73 -4.22,2.09 -9,2.41 -14.4,0.88 -5.4,-1.53 -9.3,-4.32 -11.72,-8.29 -2.43,-3.98 -2.87,-8.79 -1.25,-14.5 1.6,-5.65 4.56,-9.7 8.78,-12.06 4.22,-2.36 9.11,-2.78 14.62,-1.21 5.46,1.55 9.35,4.4 11.7,8.62 2.29,4.21 2.62,9.19 1.02,14.84z"/>
   <polygon class="fil5" points="491.18,1.27 488,1.84 493.9,34.85 497.07,34.29 497.3,35.56 481.43,38.39 481.2,37.12 484.38,36.55 478.9,5.89 472.14,40.71 470.68,40.97 450.61,10.02 456.25,41.58 461.33,40.67 461.55,41.94 451.39,43.76 451.17,42.49 454.98,41.81 449.08,8.79 445.21,9.48 444.98,8.21 459.14,5.68 473.3,27.72 478.25,2.27 490.95,0 "/>
   <path class="fil5" d="M637.77 33.92l-5 9.76 -1.15 -0.59c1.74,-3.39 2.22,-6.03 1.52,-7.92 -0.79,-1.86 -2.68,-3.55 -5.72,-5.11l-5.16 -2.65 -7.71 15.04 2.3 1.18c2.76,1.41 4.66,1.95 5.76,1.64 1.1,-0.31 2.15,-1.51 3.21,-3.57l1.15 0.59 -5.88 11.48 -1.15 -0.59c1.08,-2.13 1.48,-3.74 1.05,-4.75 -0.42,-1.01 -1.97,-2.24 -4.72,-3.65l-2.3 -1.18 -7 13.66 3.44 1.76 -0.59 1.15 -14.93 -7.64 0.59 -1.15 2.87 1.47 15.29 -29.85 -2.87 -1.47 0.59 -1.15 26.41 13.52z"/>
   <path class="fil5" d="M429.2 32.55c-2.01,-5.1 -4.25,-8.86 -6.77,-11.2 -2.49,-2.28 -4.98,-2.96 -7.38,-2.01 -2.46,0.97 -3.81,3.17 -4.06,6.59 -0.25,3.42 0.62,7.73 2.65,12.89 2.03,5.16 4.25,8.86 6.75,11.14 2.44,2.3 4.9,2.92 7.42,1.93 5.22,-2.06 5.67,-8.47 1.39,-19.34zm9.78 -3.51c2.18,5.52 2.24,10.42 0.15,14.64 -2.08,4.22 -5.69,7.37 -10.91,9.43 -5.22,2.06 -10.01,2.22 -14.35,0.53 -4.34,-1.68 -7.62,-5.25 -9.79,-10.77 -2.15,-5.46 -2.26,-10.48 -0.33,-14.91 1.93,-4.43 5.55,-7.74 10.89,-9.84 5.28,-2.08 10.09,-2.18 14.53,-0.25 4.37,1.95 7.66,5.71 9.81,11.18z"/>
   <path class="fil5" d="M667.35 84.07l1.01 0.8 -7.57 9.63 -23.84 -18.73 0.8 -1.02 2.53 1.99 20.73 -26.37 -2.54 -1.99 0.8 -1.01 13.19 10.36 -0.79 1.01 -3.04 -2.39 -20.73 26.38 5.07 3.98c1.16,0.91 2.21,1.57 3.09,2.02 0.88,0.44 1.92,0.69 3.17,0.77 2.41,0.17 5.13,-1.62 8.12,-5.43z"/>
   <path class="fil5" d="M391.12 41.48c-2.05,-3.21 -3.99,-5.03 -5.75,-5.51 -1.78,-0.39 -4.14,0.35 -7.07,2.23l-1.63 1.04 18.1 28.24 3.8 -2.44 0.7 1.09 -15.75 10.09 -0.7 -1.09 3.8 -2.44 -18.1 -28.24 -1.63 1.04c-2.88,1.85 -4.54,3.67 -4.87,5.42 -0.35,1.84 0.5,4.36 2.55,7.56l-1.09 0.7 -5.92 -9.23 28.72 -18.41 5.92 9.23 -1.08 0.7z"/>
   <polygon class="fil5" points="371.97,84.72 359.78,95.28 358.93,94.3 361.37,92.19 339.41,66.84 336.97,68.95 336.13,67.98 348.32,57.42 349.16,58.39 346.72,60.51 368.69,85.86 371.12,83.74 "/>
   <path class="fil5" d="M698.67 112.77c-8.43,7.31 -15.71,7.38 -21.83,0.31 -3.42,-3.95 -5.06,-7.91 -4.96,-11.83 0.1,-3.93 2.2,-7.71 6.25,-11.22l14.92 -12.92 -2.11 -2.44 0.98 -0.85 10.98 12.67 -0.98 0.85 -2.11 -2.44 -15.45 13.39c-6.78,5.87 -8.2,11.12 -4.27,15.65 1.61,1.86 4.01,2.76 7.17,2.66 3.11,-0.05 6.23,-1.47 9.4,-4.22l15.41 -13.34 -3.34 -3.85 0.98 -0.85 6.5 7.51 -0.98 0.84 -2.11 -2.44 -14.43 12.5z"/>
   <path class="fil5" d="M315.31 91.33l15.89 13.77c2.32,-2.68 3.3,-4.99 2.98,-6.98 -0.27,-1.95 -1.9,-4.21 -4.78,-6.7 -2.88,-2.49 -5.4,-3.82 -7.5,-3.94 -2.06,-0.08 -4.26,1.17 -6.58,3.85zm27.46 19.53l0.98 0.84 -10.56 12.19 -0.98 -0.85 2.11 -2.44 -25.35 -21.96 -2.11 2.44 -0.98 -0.84 8.41 -9.7c7.84,-9.94 15.05,-12.05 21.63,-6.35 2.93,2.53 4.12,5.7 3.56,9.4 -0.56,3.7 -2.96,7.85 -7.3,12.36l8.48 7.35 2.11 -2.44z"/>
   <polygon class="fil5" points="712.46,161.67 711.34,162.32 702.5,146.94 703.62,146.3 705.23,149.09 713.51,133.99 696.19,133.38 698.8,137.91 697.68,138.55 691.89,128.49 693.01,127.84 695.33,131.87 714.32,132.56 724.15,114.71 722.44,111.74 723.56,111.1 732.53,126.7 731.41,127.34 729.93,124.77 723.47,136.45 737.2,137.41 734.62,132.93 735.74,132.29 741.53,142.36 740.41,143 738.06,138.92 722.68,137.79 710.92,158.99 "/>
   <path class="fil5" d="M321.74 138.64c3.48,-5.43 2.13,-10.13 -4.01,-14.06l0.7 -1.08 10.32 6.61 -16.36 25.53 -1.09 -0.7 1.74 -2.72 -28.23 -18.1 -1.74 2.71 -1.08 -0.7 16.01 -24.98 9.23 5.92 -0.7 1.08c-3.2,-2.05 -5.79,-2.79 -7.74,-2.28 -1.92,0.61 -3.79,2.32 -5.63,5.2l-3.13 4.89 13.03 8.35 1.39 -2.17c1.67,-2.61 2.39,-4.45 2.19,-5.57 -0.2,-1.12 -1.29,-2.28 -3.25,-3.54l0.7 -1.09 10.86 6.96 -0.7 1.08c-2.01,-1.29 -3.58,-1.83 -4.62,-1.51 -1.05,0.32 -2.42,1.74 -4.09,4.35l-1.39 2.17 14.12 9.05 3.48 -5.43z"/>
   <path class="fil5" d="M739.71 193.46c-10.57,3.58 -17.33,0.89 -20.33,-7.97 -1.67,-4.95 -1.69,-9.23 -0.12,-12.83 1.58,-3.6 4.95,-6.3 10.02,-8.02l18.7 -6.32 -1.03 -3.06 1.22 -0.41 5.38 15.89 -1.22 0.41 -1.04 -3.06 -19.36 6.55c-8.49,2.87 -11.8,7.19 -9.88,12.87 0.79,2.32 2.67,4.07 5.63,5.18 2.9,1.13 6.32,0.99 10.3,-0.35l19.31 -6.54 -1.64 -4.82 1.22 -0.42 3.18 9.41 -1.22 0.41 -1.03 -3.06 -18.08 6.12z"/>
   <path class="fil5" d="M299.83 182.72c2.07,-6.11 -0.38,-10.34 -7.29,-12.68l0.42 -1.22 11.6 3.93 -9.71 28.72 -1.22 -0.41 1.03 -3.06 -31.77 -10.75 -1.04 3.06 -1.22 -0.41 9.51 -28.1 10.39 3.52 -0.41 1.22c-3.61,-1.22 -6.3,-1.31 -8.06,-0.34 -1.72,1.05 -3.11,3.17 -4.21,6.4l-1.86 5.5 14.66 4.96 0.83 -2.44c0.99,-2.93 1.25,-4.89 0.78,-5.93 -0.46,-1.04 -1.81,-1.91 -4,-2.65l0.41 -1.22 12.22 4.13 -0.41 1.22c-2.26,-0.77 -3.91,-0.91 -4.85,-0.35 -0.94,0.57 -1.93,2.28 -2.92,5.21l-0.83 2.44 15.89 5.38 2.07 -6.11z"/>
   <path class="fil5" d="M763.66 213.37l-16.38 2.93c0.76,4.25 1.89,6.93 3.36,8.18 1.47,1.25 3.69,1.57 6.54,1.06 2.86,-0.51 4.88,-1.66 5.95,-3.36 1.07,-1.7 1.26,-4.68 0.52,-8.81zm-30.46 31.19l-0.5 -2.79c-0.94,-5.27 -0.46,-9.16 1.46,-11.66 1.48,-1.97 3.63,-3.53 6.44,-4.62 1.16,-0.47 2.26,-0.93 3.22,-1.43 2.16,-1.11 3.07,-2.65 2.69,-4.74l-0.5 -2.79 -15.37 2.74 0.57 3.17 -1.27 0.23 -2.84 -15.88 1.27 -0.23 0.56 3.17 33.02 -5.9 -0.57 -3.17 1.27 -0.23 2.98 16.7c1.93,10.79 -0.29,16.76 -6.57,17.88 -2.48,0.44 -4.67,-0.08 -6.58,-1.64 -1.92,-1.56 -3.09,-3.71 -3.6,-6.57l-0.44 0.08c0.76,4.25 -1.51,7.68 -6.81,10.32 -2.84,1.36 -4.77,2.62 -5.82,3.73 -1.12,1.05 -1.58,2.18 -1.36,3.39l-1.27 0.23z"/>
   <polygon class="fil5" points="257.81,204.09 257.41,207.29 290.68,211.52 291.09,208.32 292.37,208.48 290.33,224.47 289.05,224.31 289.46,221.11 272.31,218.94 270.71,231.54 287.86,233.72 288.27,230.52 289.55,230.68 287.52,246.68 286.23,246.52 286.64,243.32 253.37,239.09 252.96,242.29 251.68,242.13 253.71,226.13 254.99,226.29 254.59,229.49 269.43,231.38 271.03,218.77 256.19,216.89 255.78,220.09 254.5,219.93 256.54,203.93 "/>
   <polygon class="fil5" points="732.6,275.84 732.97,261 734.26,261.04 734.2,263.62 747.8,263.96 768.02,252.92 768.1,249.57 769.4,249.6 768.94,267.66 767.65,267.63 767.73,264.47 751.25,273.08 767.29,281.87 767.42,276.72 768.71,276.75 768.42,288.04 767.13,288 767.25,283.49 749.3,273.68 733.95,273.29 733.89,275.87 "/>
   <path class="fil5" d="M262.36 254.65c-3.81,0.1 -6.37,0.81 -7.69,2.07 -1.26,1.32 -1.84,3.73 -1.75,7.21l0.05 1.93 33.53 -0.85 -0.12 -4.51 1.29 -0.03 0.47 18.7 -1.29 0.03 -0.11 -4.51 -33.53 0.85 0.05 1.93c0.09,3.42 0.79,5.78 2.11,6.98 1.39,1.26 3.98,1.84 7.79,1.74l0.03 1.29 -10.96 0.28 -0.87 -34.11 10.96 -0.28 0.03 1.29z"/>
  </g>
 </g>
</svg>
