<svg xmlns="http://www.w3.org/2000/svg" viewBox="0 0 22.24 26.83"><defs><style>.cls-1{fill:#f7931e;}.cls-2{fill:#c94127;}</style></defs><g id="Layer_2" data-name="Layer 2"><g id="Layer_1-2" data-name="Layer 1"><path class="cls-1" d="M13.38,4.86c-.19.09-.4.17-.59.28s-.38.18-.58.27c0,0,0,0,0,0-.15.06-.23.24-.33.38a2,2,0,0,0-.17.61c-.06.51-.13,1-.2,1.51,0,.18-.05.35-.07.51s-.08.57-.12.84a.26.26,0,0,1-.05.12.13.13,0,0,1-.13.09A.15.15,0,0,1,11,9.4l0-.1-.12-.86C10.75,8,10.7,7.5,10.63,7c0-.29-.07-.57-.12-.86a1.34,1.34,0,0,0-.27-.59l-.19-.16-.08,0-.52-.25c-.2-.08-.4-.19-.6-.29s-.14-.13-.13-.27a.24.24,0,0,1,.16-.22l.57-.16.49-.14.11,0a1.24,1.24,0,0,0,.3-.34,1.5,1.5,0,0,0,.23-.73c.07-.57.15-1.15.23-1.72a.88.88,0,0,1,0-.16c0-.29.07-.56.11-.84A.19.19,0,0,1,11,.1a.13.13,0,0,1,.13-.1c.06,0,.1,0,.14.1a.28.28,0,0,1,0,.11c0,.28.08.55.12.84s.1.81.16,1.21.07.62.11.93a1.28,1.28,0,0,0,.26.55,1.09,1.09,0,0,0,.24.24.73.73,0,0,0,.29.11,1.57,1.57,0,0,0,.31.08l.59.18a.25.25,0,0,1,.14.25A.27.27,0,0,1,13.38,4.86Z"/><path class="cls-2" d="M7.83,11a24.37,24.37,0,0,0-3.4-4.43c-.2-.2-.42-.52-.25-.75a.62.62,0,0,1,.25-.17L5.91,5C7.33,4.36,8,5,8.78,6.14a12.09,12.09,0,0,1,1.64,3.71A21,21,0,0,1,11,15.61c-.05,2.15-.29,4.29-.53,6.43L10,26.27a.65.65,0,0,1-.19.47.67.67,0,0,1-.42.09l-2.42,0a.36.36,0,0,1-.23-.06.36.36,0,0,1-.06-.29c.47-4,2.92-7.6,2.74-11.58a35.25,35.25,0,0,1-8,5.55.52.52,0,0,1-.41.08.49.49,0,0,1-.23-.33L.1,18.42a1.12,1.12,0,0,1-.1-.48c0-.46.54-.7,1-.86A30.83,30.83,0,0,0,7,14c.14-.1.29-.21.3-.38s-.28-.38-.51-.44a16,16,0,0,0-5.35-.4c-.26,0-.58,0-.68-.22a.56.56,0,0,1,0-.42l.57-1.77a.73.73,0,0,1,.23-.4.73.73,0,0,1,.54-.09A27.8,27.8,0,0,1,7.84,11Z"/><path class="cls-2" d="M14.4,11a24.88,24.88,0,0,1,3.41-4.43c.2-.2.42-.52.25-.75a.65.65,0,0,0-.26-.17L16.33,5c-1.42-.65-2.08,0-2.87,1.13a11.86,11.86,0,0,0-1.64,3.71,20.61,20.61,0,0,0-.55,5.76c.05,2.15.29,4.29.53,6.43l.47,4.23a.5.5,0,0,0,.6.56l2.43,0a.25.25,0,0,0,.29-.35c-.47-4-2.92-7.6-2.74-11.58a35,35,0,0,0,8,5.55.52.52,0,0,0,.41.08.49.49,0,0,0,.23-.33l.61-1.74a1.29,1.29,0,0,0,.1-.48c0-.46-.54-.7-1-.86a30.83,30.83,0,0,1-6-3.07c-.14-.1-.29-.21-.3-.38s.27-.38.51-.44a16,16,0,0,1,5.35-.4c.25,0,.58,0,.68-.22a.61.61,0,0,0,0-.42l-.57-1.77a.73.73,0,0,0-.23-.4.74.74,0,0,0-.55-.09A27.84,27.84,0,0,0,14.4,11Z"/></g></g></svg>